<svg width="1920" height="2048" xmlns="http://www.w3.org/2000/svg" preserveAspectRatio="xMidYMid meet">

 <g>
  <title>background</title>
  <rect fill="none" id="canvas_background" height="402" width="582" y="-1" x="-1"/>
 </g>
 <g>
  <title>Layer 1</title>
  <path fill="#ffffff" stroke="#ffffff" id="svg_1" d="m896,1024c0,-70.667 -25,-131 -75,-181s-110.333,-75 -181,-75s-131,25 -181,75s-75,110.333 -75,181s25,131 75,181s110.333,75 181,75s131,-25 181,-75s75,-110.333 75,-181zm768,512c0,-34.667 -12.667,-64.667 -38,-90s-55.333,-38 -90,-38s-64.667,12.667 -90,38s-38,55.333 -38,90c0,35.333 12.5,65.5 37.5,90.5s55.167,37.5 90.5,37.5s65.5,-12.5 90.5,-37.5s37.5,-55.167 37.5,-90.5zm0,-1024c0,-34.667 -12.667,-64.667 -38,-90s-55.333,-38 -90,-38s-64.667,12.667 -90,38s-38,55.333 -38,90c0,35.333 12.5,65.5 37.5,90.5s55.167,37.5 90.5,37.5s65.5,-12.5 90.5,-37.5s37.5,-55.167 37.5,-90.5zm-384,421l0,185c0,6.667 -2.333,13.167 -7,19.5s-10,9.833 -16,10.5l-155,24c-7.333,23.333 -18,48.667 -32,76c22.667,32 52.667,70.333 90,115c4.667,6.667 7,13.333 7,20c0,8 -2.333,14.333 -7,19c-15.333,20 -42.833,49.833 -82.5,89.5s-65.833,59.5 -78.5,59.5c-7.333,0 -14.333,-2.333 -21,-7l-115,-90c-24.667,12.667 -50.333,23 -77,31c-7.333,72 -15,123.667 -23,155c-4.667,16 -14.667,24 -30,24l-186,0c-7.333,0 -14,-2.5 -20,-7.5s-9.333,-10.833 -10,-17.5l-23,-153c-22.667,-6.667 -47.667,-17 -75,-31l-118,89c-4.667,4.667 -11.333,7 -20,7c-7.333,0 -14.333,-2.667 -21,-8c-96,-88.667 -144,-142 -144,-160c0,-6 2.333,-12.333 7,-19c6.667,-9.333 20.333,-27 41,-53s36.333,-46.333 47,-61c-15.333,-29.333 -27,-56.667 -35,-82l-152,-24c-6.667,-0.667 -12.333,-3.833 -17,-9.5s-7,-12.167 -7,-19.5l0,-185c0,-6.667 2.333,-13.167 7,-19.5s10,-9.833 16,-10.5l155,-24c7.333,-23.333 18,-48.667 32,-76c-22.667,-32 -52.667,-70.333 -90,-115c-4.667,-7.333 -7,-14 -7,-20c0,-8 2.333,-14.667 7,-20c14.667,-20 42,-49.667 82,-89s66.333,-59 79,-59c7.333,0 14.333,2.333 21,7l115,90c22.667,-12 48.333,-22.667 77,-32c7.333,-72 15,-123.333 23,-154c4.667,-16 14.667,-24 30,-24l186,0c7.333,0 14,2.5 20,7.5s9.333,10.833 10,17.5l23,153c22.667,6.667 47.667,17 75,31l118,-89c5.333,-4.667 12,-7 20,-7c7.333,0 14.333,2.667 21,8c96,88.667 144,142 144,160c0,6 -2.333,12.333 -7,19c-8,10.667 -22,28.667 -42,54s-35,45.333 -45,60c15.333,32 26.667,59.333 34,82l152,23c6.667,1.333 12.333,4.833 17,10.5s7,12.167 7,19.5zm640,533l0,140c0,10.667 -49.667,21 -149,31c-8,18 -18,35.333 -30,52c34,75.333 51,121.333 51,138c0,2.667 -1.333,5 -4,7c-81.333,47.333 -122.667,71 -124,71c-5.333,0 -20.667,-15.667 -46,-47s-42.667,-54 -52,-68c-13.333,1.333 -23.333,2 -30,2s-16.667,-0.667 -30,-2c-9.333,14 -26.667,36.667 -52,68s-40.667,47 -46,47c-1.333,0 -42.667,-23.667 -124,-71c-2.667,-2 -4,-4.333 -4,-7c0,-16.667 17,-62.667 51,-138c-12,-16.667 -22,-34 -30,-52c-99.333,-10 -149,-20.333 -149,-31l0,-140c0,-10.667 49.667,-21 149,-31c8.667,-19.333 18.667,-36.667 30,-52c-34,-75.333 -51,-121.333 -51,-138c0,-2.667 1.333,-5 4,-7c2.667,-1.333 14.333,-8 35,-20s40.333,-23.333 59,-34s28.667,-16 30,-16c5.333,0 20.667,15.5 46,46.5s42.667,53.5 52,67.5c13.333,-1.333 23.333,-2 30,-2s16.667,0.667 30,2c34,-47.333 64.667,-84.667 92,-112l6,-2c2.667,0 44,23.333 124,70c2.667,2 4,4.333 4,7c0,16.667 -17,62.667 -51,138c11.333,15.333 21.333,32.667 30,52c99.333,10 149,20.333 149,31zm0,-1024l0,140c0,10.667 -49.667,21 -149,31c-8,18 -18,35.333 -30,52c34,75.333 51,121.333 51,138c0,2.667 -1.333,5 -4,7c-81.333,47.333 -122.667,71 -124,71c-5.333,0 -20.667,-15.667 -46,-47s-42.667,-54 -52,-68c-13.333,1.333 -23.333,2 -30,2s-16.667,-0.667 -30,-2c-9.333,14 -26.667,36.667 -52,68s-40.667,47 -46,47c-1.333,0 -42.667,-23.667 -124,-71c-2.667,-2 -4,-4.333 -4,-7c0,-16.667 17,-62.667 51,-138c-12,-16.667 -22,-34 -30,-52c-99.333,-10 -149,-20.333 -149,-31l0,-140c0,-10.667 49.667,-21 149,-31c8.667,-19.333 18.667,-36.667 30,-52c-34,-75.333 -51,-121.333 -51,-138c0,-2.667 1.333,-5 4,-7c2.667,-1.333 14.333,-8 35,-20s40.333,-23.333 59,-34s28.667,-16 30,-16c5.333,0 20.667,15.5 46,46.5s42.667,53.5 52,67.5c13.333,-1.333 23.333,-2 30,-2s16.667,0.667 30,2c34,-47.333 64.667,-84.667 92,-112l6,-2c2.667,0 44,23.333 124,70c2.667,2 4,4.333 4,7c0,16.667 -17,62.667 -51,138c11.333,15.333 21.333,32.667 30,52c99.333,10 149,20.333 149,31z"/>
 </g>
</svg>